<?xml version="1.0" standalone="no"?>
<svg viewBox="0 0 200 200" xmlns="http://www.w3.org/2000/svg">
  <path fill="currentColor" d="M39.3,-55.6C50.2,-54.2,57.7,-42,58.1,-29.8C58.5,-17.7,51.9,-5.6,48.3,5.7C44.7,17,44.3,27.5,38.7,32.9C33.1,38.3,22.2,38.6,10.7,46.8C-0.9,54.9,-13.2,70.9,-24.5,72.6C-35.9,74.3,-46.2,61.6,-57.7,49.4C-69.1,37.2,-81.8,25.4,-86.5,10.8C-91.2,-3.9,-88,-21.3,-81.1,-37.4C-74.3,-53.5,-63.8,-68.2,-49.7,-68.2C-35.6,-68.1,-17.8,-53.1,-1.8,-50.4C14.2,-47.6,28.4,-57,39.3,-55.6Z" transform="translate(100 100)" />
</svg>
