<svg viewBox="0 0 267 146" fill="none" xmlns="http://www.w3.org/2000/svg">
<circle cx="19.5" cy="91.5" r="14.5" stroke="currentColor" stroke-width="10"/>
<path d="M78 19.5C78 27.5081 71.5081 34 63.5 34C55.4919 34 49 27.5081 49 19.5C49 11.4919 55.4919 5 63.5 5C71.5081 5 78 11.4919 78 19.5Z" stroke="currentColor" stroke-width="10"/>
<path d="M63 33.5C63 33.5 63 76.5 63 107C63 137.5 19 137.5 19 107" stroke="currentColor" stroke-width="10"/>
<path d="M91.168 48.632C91.168 49.208 91.132 49.808 91.06 50.432H77.128C77.224 51.68 77.62 52.64 78.316 53.312C79.036 53.96 79.912 54.284 80.944 54.284C82.48 54.284 83.548 53.636 84.148 52.34H90.7C90.364 53.66 89.752 54.848 88.864 55.904C88 56.96 86.908 57.788 85.588 58.388C84.268 58.988 82.792 59.288 81.16 59.288C79.192 59.288 77.44 58.868 75.904 58.028C74.368 57.188 73.168 55.988 72.304 54.428C71.44 52.868 71.008 51.044 71.008 48.956C71.008 46.868 71.428 45.044 72.268 43.484C73.132 41.924 74.332 40.724 75.868 39.884C77.404 39.044 79.168 38.624 81.16 38.624C83.104 38.624 84.832 39.032 86.344 39.848C87.856 40.664 89.032 41.828 89.872 43.34C90.736 44.852 91.168 46.616 91.168 48.632ZM84.868 47.012C84.868 45.956 84.508 45.116 83.788 44.492C83.068 43.868 82.168 43.556 81.088 43.556C80.056 43.556 79.18 43.856 78.46 44.456C77.764 45.056 77.332 45.908 77.164 47.012H84.868ZM102.588 59.288C100.836 59.288 99.2756 58.988 97.9076 58.388C96.5396 57.788 95.4596 56.972 94.6676 55.94C93.8756 54.884 93.4316 53.708 93.3356 52.412H99.4196C99.4916 53.108 99.8156 53.672 100.392 54.104C100.968 54.536 101.676 54.752 102.516 54.752C103.284 54.752 103.872 54.608 104.28 54.32C104.712 54.008 104.928 53.612 104.928 53.132C104.928 52.556 104.628 52.136 104.028 51.872C103.428 51.584 102.456 51.272 101.112 50.936C99.6716 50.6 98.4716 50.252 97.5116 49.892C96.5516 49.508 95.7236 48.92 95.0276 48.128C94.3316 47.312 93.9836 46.22 93.9836 44.852C93.9836 43.7 94.2956 42.656 94.9196 41.72C95.5676 40.76 96.5036 40.004 97.7276 39.452C98.9756 38.9 100.452 38.624 102.156 38.624C104.676 38.624 106.656 39.248 108.096 40.496C109.56 41.744 110.4 43.4 110.616 45.464H104.928C104.832 44.768 104.52 44.216 103.992 43.808C103.488 43.4 102.816 43.196 101.976 43.196C101.256 43.196 100.704 43.34 100.32 43.628C99.9356 43.892 99.7436 44.264 99.7436 44.744C99.7436 45.32 100.044 45.752 100.644 46.04C101.268 46.328 102.228 46.616 103.524 46.904C105.012 47.288 106.224 47.672 107.16 48.056C108.096 48.416 108.912 49.016 109.608 49.856C110.328 50.672 110.7 51.776 110.724 53.168C110.724 54.344 110.388 55.4 109.716 56.336C109.068 57.248 108.12 57.968 106.872 58.496C105.648 59.024 104.22 59.288 102.588 59.288ZM125.686 53.78V59H122.554C120.322 59 118.582 58.46 117.334 57.38C116.086 56.276 115.462 54.488 115.462 52.016V44.024H113.014V38.912H115.462V34.016H121.618V38.912H125.65V44.024H121.618V52.088C121.618 52.688 121.762 53.12 122.05 53.384C122.338 53.648 122.818 53.78 123.49 53.78H125.686ZM71.008 74.956C71.008 72.868 71.428 71.044 72.268 69.484C73.132 67.924 74.32 66.724 75.832 65.884C77.368 65.044 79.12 64.624 81.088 64.624C83.608 64.624 85.708 65.284 87.388 66.604C89.092 67.924 90.208 69.784 90.736 72.184H84.184C83.632 70.648 82.564 69.88 80.98 69.88C79.852 69.88 78.952 70.324 78.28 71.212C77.608 72.076 77.272 73.324 77.272 74.956C77.272 76.588 77.608 77.848 78.28 78.736C78.952 79.6 79.852 80.032 80.98 80.032C82.564 80.032 83.632 79.264 84.184 77.728H90.736C90.208 80.08 89.092 81.928 87.388 83.272C85.684 84.616 83.584 85.288 81.088 85.288C79.12 85.288 77.368 84.868 75.832 84.028C74.32 83.188 73.132 81.988 72.268 80.428C71.428 78.868 71.008 77.044 71.008 74.956ZM103.173 85.288C101.205 85.288 99.4289 84.868 97.8449 84.028C96.2849 83.188 95.0489 81.988 94.1369 80.428C93.2489 78.868 92.8049 77.044 92.8049 74.956C92.8049 72.892 93.2609 71.08 94.1729 69.52C95.0849 67.936 96.3329 66.724 97.9169 65.884C99.5009 65.044 101.277 64.624 103.245 64.624C105.213 64.624 106.989 65.044 108.573 65.884C110.157 66.724 111.405 67.936 112.317 69.52C113.229 71.08 113.685 72.892 113.685 74.956C113.685 77.02 113.217 78.844 112.281 80.428C111.369 81.988 110.109 83.188 108.501 84.028C106.917 84.868 105.141 85.288 103.173 85.288ZM103.173 79.96C104.349 79.96 105.345 79.528 106.161 78.664C107.001 77.8 107.421 76.564 107.421 74.956C107.421 73.348 107.013 72.112 106.197 71.248C105.405 70.384 104.421 69.952 103.245 69.952C102.045 69.952 101.049 70.384 100.257 71.248C99.4649 72.088 99.0689 73.324 99.0689 74.956C99.0689 76.564 99.4529 77.8 100.221 78.664C101.013 79.528 101.997 79.96 103.173 79.96ZM125.987 79.24L130.343 64.912H136.895L129.767 85H122.171L115.043 64.912H121.631L125.987 79.24ZM158.422 74.632C158.422 75.208 158.386 75.808 158.314 76.432H144.382C144.478 77.68 144.874 78.64 145.57 79.312C146.29 79.96 147.166 80.284 148.198 80.284C149.734 80.284 150.802 79.636 151.402 78.34H157.954C157.618 79.66 157.006 80.848 156.118 81.904C155.254 82.96 154.162 83.788 152.842 84.388C151.522 84.988 150.046 85.288 148.414 85.288C146.446 85.288 144.694 84.868 143.158 84.028C141.622 83.188 140.422 81.988 139.558 80.428C138.694 78.868 138.262 77.044 138.262 74.956C138.262 72.868 138.682 71.044 139.522 69.484C140.386 67.924 141.586 66.724 143.122 65.884C144.658 65.044 146.422 64.624 148.414 64.624C150.358 64.624 152.086 65.032 153.598 65.848C155.11 66.664 156.286 67.828 157.126 69.34C157.99 70.852 158.422 72.616 158.422 74.632ZM152.122 73.012C152.122 71.956 151.762 71.116 151.042 70.492C150.322 69.868 149.422 69.556 148.342 69.556C147.31 69.556 146.434 69.856 145.714 70.456C145.018 71.056 144.586 71.908 144.418 73.012H152.122ZM167.826 68.26C168.546 67.156 169.446 66.292 170.526 65.668C171.606 65.02 172.806 64.696 174.126 64.696V71.212H172.434C170.898 71.212 169.746 71.548 168.978 72.22C168.21 72.868 167.826 74.02 167.826 75.676V85H161.67V64.912H167.826V68.26ZM175.844 74.92C175.844 72.856 176.228 71.044 176.996 69.484C177.788 67.924 178.856 66.724 180.2 65.884C181.544 65.044 183.044 64.624 184.7 64.624C186.116 64.624 187.352 64.912 188.408 65.488C189.488 66.064 190.316 66.82 190.892 67.756V64.912H197.048V85H190.892V82.156C190.292 83.092 189.452 83.848 188.372 84.424C187.316 85 186.08 85.288 184.664 85.288C183.032 85.288 181.544 84.868 180.2 84.028C178.856 83.164 177.788 81.952 176.996 80.392C176.228 78.808 175.844 76.984 175.844 74.92ZM190.892 74.956C190.892 73.42 190.46 72.208 189.596 71.32C188.756 70.432 187.724 69.988 186.5 69.988C185.276 69.988 184.232 70.432 183.368 71.32C182.528 72.184 182.108 73.384 182.108 74.92C182.108 76.456 182.528 77.68 183.368 78.592C184.232 79.48 185.276 79.924 186.5 79.924C187.724 79.924 188.756 79.48 189.596 78.592C190.46 77.704 190.892 76.492 190.892 74.956ZM209.134 64.624C210.55 64.624 211.786 64.912 212.842 65.488C213.922 66.064 214.75 66.82 215.326 67.756V64.912H221.482V84.964C221.482 86.812 221.11 88.48 220.366 89.968C219.646 91.48 218.53 92.68 217.018 93.568C215.53 94.456 213.67 94.9 211.438 94.9C208.462 94.9 206.05 94.192 204.202 92.776C202.354 91.384 201.298 89.488 201.034 87.088H207.118C207.31 87.856 207.766 88.456 208.486 88.888C209.206 89.344 210.094 89.572 211.15 89.572C212.422 89.572 213.43 89.2 214.174 88.456C214.942 87.736 215.326 86.572 215.326 84.964V82.12C214.726 83.056 213.898 83.824 212.842 84.424C211.786 85 210.55 85.288 209.134 85.288C207.478 85.288 205.978 84.868 204.634 84.028C203.29 83.164 202.222 81.952 201.43 80.392C200.662 78.808 200.278 76.984 200.278 74.92C200.278 72.856 200.662 71.044 201.43 69.484C202.222 67.924 203.29 66.724 204.634 65.884C205.978 65.044 207.478 64.624 209.134 64.624ZM215.326 74.956C215.326 73.42 214.894 72.208 214.03 71.32C213.19 70.432 212.158 69.988 210.934 69.988C209.71 69.988 208.666 70.432 207.802 71.32C206.962 72.184 206.542 73.384 206.542 74.92C206.542 76.456 206.962 77.68 207.802 78.592C208.666 79.48 209.71 79.924 210.934 79.924C212.158 79.924 213.19 79.48 214.03 78.592C214.894 77.704 215.326 76.492 215.326 74.956ZM244.871 74.632C244.871 75.208 244.835 75.808 244.763 76.432H230.831C230.927 77.68 231.323 78.64 232.019 79.312C232.739 79.96 233.615 80.284 234.647 80.284C236.183 80.284 237.251 79.636 237.851 78.34H244.403C244.067 79.66 243.455 80.848 242.567 81.904C241.703 82.96 240.611 83.788 239.291 84.388C237.971 84.988 236.495 85.288 234.863 85.288C232.895 85.288 231.143 84.868 229.607 84.028C228.071 83.188 226.871 81.988 226.007 80.428C225.143 78.868 224.711 77.044 224.711 74.956C224.711 72.868 225.131 71.044 225.971 69.484C226.835 67.924 228.035 66.724 229.571 65.884C231.107 65.044 232.871 64.624 234.863 64.624C236.807 64.624 238.535 65.032 240.047 65.848C241.559 66.664 242.735 67.828 243.575 69.34C244.439 70.852 244.871 72.616 244.871 74.632ZM238.571 73.012C238.571 71.956 238.211 71.116 237.491 70.492C236.771 69.868 235.871 69.556 234.791 69.556C233.759 69.556 232.883 69.856 232.163 70.456C231.467 71.056 231.035 71.908 230.867 73.012H238.571ZM78.388 94.26C79.108 93.156 80.008 92.292 81.088 91.668C82.168 91.02 83.368 90.696 84.688 90.696V97.212H82.996C81.46 97.212 80.308 97.548 79.54 98.22C78.772 98.868 78.388 100.02 78.388 101.676V111H72.232V90.912H78.388V94.26ZM106.566 100.632C106.566 101.208 106.53 101.808 106.458 102.432H92.5264C92.6224 103.68 93.0184 104.64 93.7144 105.312C94.4344 105.96 95.3104 106.284 96.3424 106.284C97.8784 106.284 98.9464 105.636 99.5464 104.34H106.098C105.762 105.66 105.15 106.848 104.262 107.904C103.398 108.96 102.306 109.788 100.986 110.388C99.6664 110.988 98.1904 111.288 96.5584 111.288C94.5904 111.288 92.8384 110.868 91.3024 110.028C89.7664 109.188 88.5664 107.988 87.7024 106.428C86.8384 104.868 86.4064 103.044 86.4064 100.956C86.4064 98.868 86.8264 97.044 87.6664 95.484C88.5304 93.924 89.7304 92.724 91.2664 91.884C92.8024 91.044 94.5664 90.624 96.5584 90.624C98.5024 90.624 100.23 91.032 101.742 91.848C103.254 92.664 104.43 93.828 105.27 95.34C106.134 96.852 106.566 98.616 106.566 100.632ZM100.266 99.012C100.266 97.956 99.9064 97.116 99.1864 96.492C98.4664 95.868 97.5664 95.556 96.4864 95.556C95.4544 95.556 94.5784 95.856 93.8584 96.456C93.1624 97.056 92.7304 97.908 92.5624 99.012H100.266ZM115.97 93.756C116.57 92.82 117.398 92.064 118.454 91.488C119.51 90.912 120.746 90.624 122.162 90.624C123.818 90.624 125.318 91.044 126.662 91.884C128.006 92.724 129.062 93.924 129.83 95.484C130.622 97.044 131.018 98.856 131.018 100.92C131.018 102.984 130.622 104.808 129.83 106.392C129.062 107.952 128.006 109.164 126.662 110.028C125.318 110.868 123.818 111.288 122.162 111.288C120.77 111.288 119.534 111 118.454 110.424C117.398 109.848 116.57 109.104 115.97 108.192V120.576H109.814V90.912H115.97V93.756ZM124.754 100.92C124.754 99.384 124.322 98.184 123.458 97.32C122.618 96.432 121.574 95.988 120.326 95.988C119.102 95.988 118.058 96.432 117.194 97.32C116.354 98.208 115.934 99.42 115.934 100.956C115.934 102.492 116.354 103.704 117.194 104.592C118.058 105.48 119.102 105.924 120.326 105.924C121.55 105.924 122.594 105.48 123.458 104.592C124.322 103.68 124.754 102.456 124.754 100.92ZM143.392 111.288C141.424 111.288 139.648 110.868 138.064 110.028C136.504 109.188 135.268 107.988 134.356 106.428C133.468 104.868 133.024 103.044 133.024 100.956C133.024 98.892 133.48 97.08 134.392 95.52C135.304 93.936 136.552 92.724 138.136 91.884C139.72 91.044 141.496 90.624 143.464 90.624C145.432 90.624 147.208 91.044 148.792 91.884C150.376 92.724 151.624 93.936 152.536 95.52C153.448 97.08 153.904 98.892 153.904 100.956C153.904 103.02 153.436 104.844 152.5 106.428C151.588 107.988 150.328 109.188 148.72 110.028C147.136 110.868 145.36 111.288 143.392 111.288ZM143.392 105.96C144.568 105.96 145.564 105.528 146.38 104.664C147.22 103.8 147.64 102.564 147.64 100.956C147.64 99.348 147.232 98.112 146.416 97.248C145.624 96.384 144.64 95.952 143.464 95.952C142.264 95.952 141.268 96.384 140.476 97.248C139.684 98.088 139.288 99.324 139.288 100.956C139.288 102.564 139.672 103.8 140.44 104.664C141.232 105.528 142.216 105.96 143.392 105.96ZM163.326 94.26C164.046 93.156 164.946 92.292 166.026 91.668C167.106 91.02 168.306 90.696 169.626 90.696V97.212H167.934C166.398 97.212 165.246 97.548 164.478 98.22C163.71 98.868 163.326 100.02 163.326 101.676V111H157.17V90.912H163.326V94.26ZM183.764 105.78V111H180.632C178.4 111 176.66 110.46 175.412 109.38C174.164 108.276 173.54 106.488 173.54 104.016V96.024H171.092V90.912H173.54V86.016H179.696V90.912H183.728V96.024H179.696V104.088C179.696 104.688 179.84 105.12 180.128 105.384C180.416 105.648 180.896 105.78 181.568 105.78H183.764ZM71.008 126.92C71.008 124.856 71.392 123.044 72.16 121.484C72.952 119.924 74.02 118.724 75.364 117.884C76.708 117.044 78.208 116.624 79.864 116.624C81.28 116.624 82.516 116.912 83.572 117.488C84.652 118.064 85.48 118.82 86.056 119.756V116.912H92.212V137H86.056V134.156C85.456 135.092 84.616 135.848 83.536 136.424C82.48 137 81.244 137.288 79.828 137.288C78.196 137.288 76.708 136.868 75.364 136.028C74.02 135.164 72.952 133.952 72.16 132.392C71.392 130.808 71.008 128.984 71.008 126.92ZM86.056 126.956C86.056 125.42 85.624 124.208 84.76 123.32C83.92 122.432 82.888 121.988 81.664 121.988C80.44 121.988 79.396 122.432 78.532 123.32C77.692 124.184 77.272 125.384 77.272 126.92C77.272 128.456 77.692 129.68 78.532 130.592C79.396 131.48 80.44 131.924 81.664 131.924C82.888 131.924 83.92 131.48 84.76 130.592C85.624 129.704 86.056 128.492 86.056 126.956ZM95.4416 126.956C95.4416 124.868 95.8616 123.044 96.7016 121.484C97.5656 119.924 98.7536 118.724 100.266 117.884C101.802 117.044 103.554 116.624 105.522 116.624C108.042 116.624 110.142 117.284 111.822 118.604C113.526 119.924 114.642 121.784 115.17 124.184H108.618C108.066 122.648 106.998 121.88 105.414 121.88C104.286 121.88 103.386 122.324 102.714 123.212C102.042 124.076 101.706 125.324 101.706 126.956C101.706 128.588 102.042 129.848 102.714 130.736C103.386 131.6 104.286 132.032 105.414 132.032C106.998 132.032 108.066 131.264 108.618 129.728H115.17C114.642 132.08 113.526 133.928 111.822 135.272C110.118 136.616 108.018 137.288 105.522 137.288C103.554 137.288 101.802 136.868 100.266 136.028C98.7536 135.188 97.5656 133.988 96.7016 132.428C95.8616 130.868 95.4416 129.044 95.4416 126.956ZM129.658 131.78V137H126.526C124.294 137 122.554 136.46 121.306 135.38C120.058 134.276 119.434 132.488 119.434 130.016V122.024H116.986V116.912H119.434V112.016H125.59V116.912H129.622V122.024H125.59V130.088C125.59 130.688 125.734 131.12 126.022 131.384C126.31 131.648 126.79 131.78 127.462 131.78H129.658ZM136.183 114.824C135.103 114.824 134.215 114.512 133.519 113.888C132.847 113.24 132.511 112.448 132.511 111.512C132.511 110.552 132.847 109.76 133.519 109.136C134.215 108.488 135.103 108.164 136.183 108.164C137.239 108.164 138.103 108.488 138.775 109.136C139.471 109.76 139.819 110.552 139.819 111.512C139.819 112.448 139.471 113.24 138.775 113.888C138.103 114.512 137.239 114.824 136.183 114.824ZM139.243 116.912V137H133.087V116.912H139.243ZM152.849 137.288C150.881 137.288 149.105 136.868 147.521 136.028C145.961 135.188 144.725 133.988 143.813 132.428C142.925 130.868 142.481 129.044 142.481 126.956C142.481 124.892 142.937 123.08 143.849 121.52C144.761 119.936 146.009 118.724 147.593 117.884C149.177 117.044 150.953 116.624 152.921 116.624C154.889 116.624 156.665 117.044 158.249 117.884C159.833 118.724 161.081 119.936 161.993 121.52C162.905 123.08 163.361 124.892 163.361 126.956C163.361 129.02 162.893 130.844 161.957 132.428C161.045 133.988 159.785 135.188 158.177 136.028C156.593 136.868 154.817 137.288 152.849 137.288ZM152.849 131.96C154.025 131.96 155.021 131.528 155.837 130.664C156.677 129.8 157.097 128.564 157.097 126.956C157.097 125.348 156.689 124.112 155.873 123.248C155.081 122.384 154.097 121.952 152.921 121.952C151.721 121.952 150.725 122.384 149.933 123.248C149.141 124.088 148.745 125.324 148.745 126.956C148.745 128.564 149.129 129.8 149.897 130.664C150.689 131.528 151.673 131.96 152.849 131.96ZM178.867 116.696C181.219 116.696 183.091 117.464 184.483 119C185.899 120.512 186.607 122.6 186.607 125.264V137H180.487V126.092C180.487 124.748 180.139 123.704 179.443 122.96C178.747 122.216 177.811 121.844 176.635 121.844C175.459 121.844 174.523 122.216 173.827 122.96C173.131 123.704 172.783 124.748 172.783 126.092V137H166.627V116.912H172.783V119.576C173.407 118.688 174.247 117.992 175.303 117.488C176.359 116.96 177.547 116.696 178.867 116.696Z" fill="currentColor"/>
</svg>
